<svg width="52" height="52" viewBox="0 0 52 52" fill="none" xmlns="http://www.w3.org/2000/svg">
<path d="M43.9176 35.2404L45.4463 26.4009C45.8281 24.1931 44.1302 22.1738 41.8921 22.1738H30.6664C29.5538 22.1738 28.7066 21.1751 28.8867 20.076L30.3225 11.3128C30.5558 9.88909 30.4891 8.43234 30.1269 7.03598C29.8268 5.87923 28.9344 4.9504 27.7607 4.57335L27.4466 4.47244C26.7372 4.24456 25.963 4.29759 25.2942 4.61986C24.5581 4.97458 24.0195 5.6216 23.8199 6.3911L22.7892 10.3645C22.4613 11.6287 21.9836 12.849 21.3677 14.002C20.4677 15.6867 19.0763 17.035 17.63 18.2813L14.5127 20.9676C13.6338 21.7249 13.1722 22.8592 13.2723 24.0159L15.0319 44.3667C15.1933 46.2333 16.754 47.6663 18.6255 47.6663H28.6975C36.2403 47.6663 42.6776 42.4109 43.9176 35.2404Z" fill="white"/>
<path opacity="0.5" fill-rule="evenodd" clip-rule="evenodd" d="M6.42994 20.5513C7.29935 20.5138 8.04399 21.1679 8.11896 22.0348L10.2241 46.3806C10.3593 47.9445 9.12748 49.2924 7.55453 49.2924C6.07293 49.2924 4.875 48.0905 4.875 46.6117V22.1748C4.875 21.3046 5.56053 20.5889 6.42994 20.5513Z" fill="white"/>
</svg>
