<svg width="18" height="18" viewBox="0 0 18 18" fill="none" xmlns="http://www.w3.org/2000/svg">
<path fill-rule="evenodd" clip-rule="evenodd" d="M7.71728 0.0410157H10.2829C11.619 0.0410104 12.6665 0.0410063 13.5033 0.120572C14.3563 0.201672 15.0547 0.369823 15.6704 0.747115C16.3151 1.14222 16.8572 1.6843 17.2523 2.32904C17.6296 2.94473 17.7978 3.64315 17.8789 4.49611C17.9584 5.33292 17.9584 6.38039 17.9584 7.71654V8.60589C17.9584 9.55696 17.9584 10.3027 17.9173 10.905C17.8755 11.5179 17.7891 12.028 17.5937 12.4997C17.1073 13.6738 16.1745 14.6066 15.0004 15.0929C14.3296 15.3708 13.5656 15.4324 12.5195 15.4505C12.1536 15.4568 11.9218 15.4614 11.7451 15.481C11.5801 15.4992 11.5161 15.526 11.4786 15.5478C11.4391 15.5708 11.3853 15.6127 11.2918 15.7409C11.1907 15.8796 11.0764 16.0714 10.8952 16.3776L10.4435 17.1408C9.79882 18.2299 8.2013 18.2299 7.55666 17.1408L7.10491 16.3776C6.9237 16.0714 6.80943 15.8796 6.70829 15.7409C6.61485 15.6127 6.56102 15.5708 6.52152 15.5478C6.48407 15.526 6.42007 15.4992 6.25498 15.481C6.07831 15.4614 5.84654 15.4568 5.48063 15.4505C4.43456 15.4324 3.67053 15.3708 2.99972 15.0929C1.82563 14.6066 0.892817 13.6738 0.406492 12.4997C0.211106 12.028 0.124661 11.5179 0.082844 10.905C0.0417434 10.3027 0.0417455 9.55696 0.0417482 8.60588L0.0417481 7.71655C0.0417428 6.3804 0.0417387 5.33293 0.121304 4.49611C0.202404 3.64315 0.370556 2.94473 0.747848 2.32904C1.14295 1.6843 1.68503 1.14222 2.32978 0.747115C2.94546 0.369823 3.64388 0.201672 4.49684 0.120572C5.33366 0.0410063 6.38113 0.0410104 7.71728 0.0410157ZM4.61515 1.36496C3.85369 1.43736 3.36917 1.57621 2.9829 1.81292C2.50635 2.10495 2.10568 2.50562 1.81365 2.98217C1.57694 3.36844 1.43809 3.85296 1.36569 4.61442C1.29241 5.38518 1.29175 6.37332 1.29175 7.74935V8.58268C1.29175 9.56195 1.29209 10.2651 1.32994 10.82C1.36742 11.3692 1.43956 11.7273 1.56134 12.0214C1.9208 12.8892 2.61027 13.5786 3.47808 13.9381C3.90777 14.1161 4.45597 14.1826 5.50216 14.2007L5.52868 14.2011C5.86035 14.2068 6.15099 14.2118 6.39256 14.2386C6.65213 14.2673 6.906 14.3254 7.14997 14.4673C7.39187 14.608 7.56636 14.7959 7.71846 15.0046C7.85901 15.1975 8.00346 15.4415 8.16705 15.718L8.63235 16.5041C8.79298 16.7755 9.20715 16.7755 9.36778 16.5041L9.83308 15.718C9.99667 15.4415 10.1411 15.1975 10.2817 15.0046C10.4338 14.7959 10.6083 14.608 10.8502 14.4673C11.0941 14.3254 11.348 14.2673 11.6076 14.2386C11.8491 14.2118 12.1398 14.2068 12.4714 14.2011L12.498 14.2007C13.5442 14.1826 14.0924 14.1161 14.5221 13.9381C15.3899 13.5786 16.0794 12.8892 16.4388 12.0214C16.5606 11.7273 16.6327 11.3692 16.6702 10.82C16.7081 10.2651 16.7084 9.56195 16.7084 8.58268V7.74935C16.7084 6.37332 16.7078 5.38518 16.6345 4.61442C16.5621 3.85296 16.4232 3.36844 16.1865 2.98217C15.8945 2.50562 15.4938 2.10495 15.0173 1.81292C14.631 1.57621 14.1465 1.43736 13.385 1.36496C12.6142 1.29168 11.6261 1.29102 10.2501 1.29102H7.75008C6.37405 1.29102 5.38592 1.29168 4.61515 1.36496Z" fill="#9AACB6"/>
<path d="M6.50008 8.16602C6.50008 8.62625 6.12699 8.99935 5.66675 8.99935C5.20651 8.99935 4.83341 8.62625 4.83341 8.16602C4.83341 7.70578 5.20651 7.33268 5.66675 7.33268C6.12699 7.33268 6.50008 7.70578 6.50008 8.16602Z" fill="#9AACB6"/>
<path d="M9.83341 8.16602C9.83341 8.62625 9.46032 8.99935 9.00008 8.99935C8.53984 8.99935 8.16675 8.62625 8.16675 8.16602C8.16675 7.70578 8.53984 7.33268 9.00008 7.33268C9.46032 7.33268 9.83341 7.70578 9.83341 8.16602Z" fill="#9AACB6"/>
<path d="M13.1667 8.16602C13.1667 8.62625 12.7937 8.99935 12.3334 8.99935C11.8732 8.99935 11.5001 8.62625 11.5001 8.16602C11.5001 7.70578 11.8732 7.33268 12.3334 7.33268C12.7937 7.33268 13.1667 7.70578 13.1667 8.16602Z" fill="#9AACB6"/>
</svg>
