<svg width="42" height="42" viewBox="0 0 42 42" fill="none" xmlns="http://www.w3.org/2000/svg">
<path opacity="0.4" d="M30.6776 13.5975C30.5551 13.58 30.4326 13.58 30.3101 13.5975C27.5976 13.51 25.4451 11.2875 25.4451 8.5575C25.4451 5.775 27.7026 3.5 30.5026 3.5C33.2851 3.5 35.5601 5.7575 35.5601 8.5575C35.5426 11.2875 33.3901 13.51 30.6776 13.5975Z" fill="white"/>
<path opacity="0.4" d="M36.3826 25.7247C34.4226 27.0372 31.6751 27.5272 29.1376 27.1947C29.8026 25.7597 30.1526 24.1672 30.1701 22.4872C30.1701 20.7372 29.785 19.0747 29.05 17.6222C31.64 17.2722 34.3875 17.7622 36.365 19.0747C39.13 20.8947 39.1301 23.8872 36.3826 25.7247Z" fill="white"/>
<path opacity="0.4" d="M11.2699 13.5975C11.3924 13.58 11.515 13.58 11.6375 13.5975C14.35 13.51 16.5024 11.2875 16.5024 8.5575C16.5024 5.775 14.245 3.5 11.445 3.5C8.66245 3.5 6.38745 5.7575 6.38745 8.5575C6.40495 11.2875 8.55745 13.51 11.2699 13.5975Z" fill="white"/>
<path opacity="0.4" d="M11.4625 22.4876C11.4625 24.1851 11.83 25.7951 12.495 27.2476C10.0275 27.5101 7.45496 26.9851 5.56496 25.7426C2.79996 23.9051 2.79996 20.9125 5.56496 19.075C7.43746 17.815 10.08 17.3076 12.565 17.5876C11.8475 19.0576 11.4625 20.7201 11.4625 22.4876Z" fill="white"/>
<path d="M21.2099 27.7725C21.0699 27.755 20.9124 27.755 20.7549 27.7725C17.5349 27.6675 14.9624 25.025 14.9624 21.77C14.9624 18.445 17.6399 15.75 20.9824 15.75C24.3074 15.75 27.0024 18.445 27.0024 21.77C27.0024 25.025 24.4474 27.6675 21.2099 27.7725Z" fill="white"/>
<path d="M15.5224 31.3951C12.8799 33.1626 12.8799 36.0676 15.5224 37.8176C18.5324 39.8301 23.4674 39.8301 26.4774 37.8176C29.1199 36.0501 29.1199 33.1451 26.4774 31.3951C23.4849 29.3826 18.5499 29.3826 15.5224 31.3951Z" fill="white"/>
</svg>
